name processed_emg_signals
nRows=68
nColumns=7
 
endheader
time	LGLTMED	LRF	LADDLONG	LBF	LTA	LGM
5.327800000000004	0.002298887322698	0.0061835369915202	0.0032467353675028	0.0040004232646718	0.3960355625779564	0.0009838463734059
5.337800000000005	0.0022749269608204	0.0061834834029881	0.0032377004830263	0.0039986422269747	0.4001949035341826	0.0009927893391631
5.347800000000005	0.0022519204742686	0.0061832491355453	0.0032297684243498	0.0039985731065077	0.4044498872186541	0.0010018750795197
5.357800000000005	0.0022298977603534	0.0061828117337118	0.0032229352762325	0.0040001747859907	0.4087961801855782	0.0010110941967324
5.367800000000004	0.002208886853565	0.00618214922323	0.0032171956424213	0.0040034032647415	0.4132292697779682	0.0010204370111483
5.377800000000004	0.0021889138892329	0.0061812401695073	0.0032125426595691	0.0040082117638113	0.4177444710095501	0.0010298935754628
5.387800000000005	0.0021700030709165	0.0061800637337574	0.0032089680135952	0.0040145508366067	0.4223369337224691	0.0010394536893865
5.397800000000005	0.0021521766415411	0.0061785997265895	0.0032064619584397	0.0040223684847935	0.4270016500027687	0.0010491069146876
5.407800000000004	0.002135454858284	0.0061768286588348	0.0032050133371608	0.004031610279258	0.4317334618349819	0.0010588425905754
5.417800000000005	0.002119855971209	0.0061747317894382	0.0032046096053276	0.0040422194858929	0.4365270689767889	0.0010686498493928
5.427800000000005	0.0021053962056419	0.0061722911702857	0.0032052368566615	0.0040541371959559	0.4413770370347176	0.0010785176325832
5.437800000000005	0.002092089748271	0.0061694896878707	0.0032068798508826	0.0040673024607417	0.4462778057223678	0.0010884347069006
5.447800000000004	0.0020799487369543	0.0061663111017223	0.0032095220437133	0.00408165243029	0.4512236972835238	0.0010983896808332
5.457800000000004	0.0020689832542095	0.006162740079532	0.0032131456189864	0.0040971224958447	0.4562089250636307	0.0011083710212119
5.467800000000005	0.0020592013243612	0.0061587622289275	0.0032177315228047	0.004113646435768	0.4612276022143357	0.001118367069978
5.477800000000005	0.0020506089143191	0.0061543641258541	0.003223259499696	0.0041311565646008	0.4662737505171346	0.0011283660610832
5.4878000000000045	0.0020432099379634	0.0061495333395322	0.0032297081307092	0.004149583884954	0.4713413093136609	0.001138356137501
5.497800000000005	0.0020370062641113	0.0061442584539616	0.0032370548733992	0.0041688582419006	0.4764241445318846	0.0011483253683278
5.507800000000005	0.0020319977280421	0.0061385290859446	0.0032452761036472	0.0041889084795286	0.4815160577995053	0.0011582617659593
5.517800000000005	0.0020281821465516	0.0061323358996134	0.0032543471592588	0.0042096625993018	0.4866107956380743	0.0011681533033328
5.5278000000000045	0.0020255553365049	0.0061256706174731	0.0032642423852793	0.0042310479198637	0.4917020587337283	0.0011779879312296
5.537800000000004	0.0020241111368499	0.0061185260280064	0.0032749351809581	0.0042529912379059	0.4967835112826219	0.0011877535956374
5.547800000000005	0.0020238414340505	0.0061108959899239	0.0032863980483001	0.0042754189897105	0.501848790410981	0.001197438255173
5.557800000000005	0.00202473619089	0.0061027754331725	0.0032986026421364	0.0042982574129672	0.5068915156708975	0.0012070298985721
5.5678000000000045	0.0020267834785923	0.0060941603568366	0.0033115198216494	0.0043214327084539	0.5119052986134627	0.0012165165622488
5.577800000000005	0.0020299695122011	0.0060850478240771	0.0033251197032837	0.004344871201169	0.5168837524407826	0.0012258863479346
5.587800000000005	0.0020342786891532	0.0060754359542678	0.00333937171497	0.0043684995004966	0.5218205017381138	0.0012351274404002
5.597800000000005	0.002039693630975	0.0060653239124968	0.0033542446515782	0.0043922446589923	0.5267091922868632	0.0012442281252648
5.607800000000005	0.0020461952280304	0.0060547118966083	0.0033697067315132	0.0044160343293803	0.5315435009584512	0.0012531768068983
5.617800000000004	0.0020537626872365	0.0060436011219657	0.0033857256543502	0.0044397969193648	0.5363171456880524	0.0012619620264142
5.627800000000005	0.0020623735826668	0.0060319938041152	0.0034022686594048	0.00446346174387	0.541023895526045	0.0012705724797525
5.637800000000005	0.0020720039089472	0.006019893139528	0.0034193025851164	0.0044869591743248	0.5456575807636463	0.0012789970358489
5.647800000000005	0.0020826281373532	0.0060073032845941	0.0034367939291172	0.0045102207846153	0.5502121031276654	0.0012872247548807
5.657800000000005	0.0020942192745075	0.005994229333039	0.0034547089088509	0.0045331794933273	0.5546814460375619	0.0012952449065801
5.667800000000005	0.0021067489235778	0.0059806772919281	0.0034730135225965	0.004555769701903	0.5590596849160924	0.001303046988599
5.677800000000005	0.0021201873478707	0.0059666540564209	0.0034916736107567	0.0045779274283339	0.5633409975427762	0.0013106207449067
5.687800000000005	0.0021345035367158	0.0059521673834243	0.0035106549172673	0.0045995904360083	0.5675196744373334	0.0013179561841957
5.697800000000004	0.0021496652735326	0.0059372258642851	0.0035299231509868	0.0046206983573283	0.5715901292582061	0.0013250435982675
5.707800000000005	0.0021656392059671	0.0059218388966451	0.0035494440469254	0.004641192811708	0.575546909199271	0.0013318735803647
5.717800000000005	0.00218239091798	0.0059060166555707	0.0035691834271751	0.0046610175175643	0.5793847053658744	0.0013384370434118
5.727800000000005	0.002199885003764	0.0058897700640536	0.0035891072614037	0.004680118397927	0.5830983631093034	0.0013447252381239
5.737800000000005	0.0022180851433641	0.0058731107629684	0.0036091817267829	0.0046984436793258	0.5866828922968048	0.0013507297709388
5.747800000000005	0.0022369541798718	0.0058560510805546	0.0036293732672188	0.0047159439836575	0.5901334774922583	0.0013564426217239
5.757800000000005	0.0022564541980655	0.0058386040014845	0.0036496486517592	0.0047325724127892	0.5934454880206365	0.0013618561612052
5.767800000000005	0.0022765466043619	0.0058207831355644	0.0036699750320473	0.0047482846257072	0.596614487887385	0.0013669631680635
5.7778000000000045	0.0022971922079461	0.005802602686109	0.003690319998696	0.0047630389080702	0.599636245521885	0.0013717568456359
5.787800000000005	0.0023183513029368	0.0057840774180188	0.0037106516364501	0.0047767962340678	0.6025067433121957	0.0013762308381599
5.797800000000005	0.0023399837514444	0.0057652226255815	0.0037309385780069	0.0047895203205096	0.6052221868963444	0.0013803792464883
5.807800000000005	0.002362049067368	0.0057460541000145	0.0037511500563608	0.0048011776730883	0.6077790141734718	0.0013841966432051
5.817800000000005	0.0023845065007767	0.0057265880967593	0.003771255955549	0.0048117376247857	0.610173903996183	0.0013876780870602
5.827800000000005	0.0024073151227148	0.0057068413025337	0.0037912268596745	0.004821172366404	0.6124037845035603	0.0013908191366431
5.837800000000005	0.002430433910262	0.0056868308021462	0.0038110341000949	0.0048294569692323	0.6144658410525777	0.0013936158632068
5.847800000000005	0.0024538218316755	0.0056665740450756	0.0038306498006751	0.0048365693998805	0.6163575237042765	0.0013960648625541
5.857800000000005	0.0024774379314327	0.0056460888118232	0.0038500469210158	0.0048424905273425	0.6180765542201391	0.0013981632658993
5.867800000000005	0.0025012414149867	0.005625393180049	0.003869199297588	0.0048472041223723	0.6196209325239252	0.0013999087496219
5.877800000000005	0.00252519173304	0.0056045054905192	0.0038880816827117	0.004850696849278	0.6209889425852231	0.0014012995438382
5.887800000000005	0.0025492486651381	0.0055834443129073	0.0039066697813219	0.0048529582502683	0.6221791576833888	0.0014023344397213
5.8978000000000055	0.002573372402376	0.0055622284115137	0.0039249402854631	0.0048539807225179	0.6231904450143549	0.0014030127955142
5.907800000000005	0.0025975236290093	0.0055408767109798	0.003942870906452	0.0048537594881779	0.6240219696074314	0.0014033345411893
5.917800000000005	0.0026216636027551	0.0055194082620778	0.0039604404046464	0.0048522925576015	0.624673197524118	0.0014033001817143
5.927800000000005	0.0026457542335614	0.0054978422076562	0.0039776286167545	0.0048495806861019	0.6251438983154444	0.0014029107988984
5.937800000000005	0.0026697581606241	0.005476197748813	0.0039944164806212	0.0048456273245773	0.6254341467179676	0.0014021680517925
5.947800000000005	0.0026936388274232	0.0054544941113668	0.0040107860574255	0.0048404385643529	0.6255443235711932	0.0014010741756248
5.957800000000005	0.0027173605545489	0.0054327505126822	0.0040267205512239	0.0048340230765849	0.6254751159411535	0.0013996319792552
5.967800000000005	0.0027408886100862	0.0054109861288983	0.004042204325772	0.0048263920465679	0.6252275164368309	0.0013978448411358
5.9778000000000056	0.002764189277326	0.0053892200625961	0.0040572229185658	0.0048175591032742	0.6248028217084858	0.0013957167037715
5.987800000000005	0.0027872299195771	0.0053674713109333	0.0040717630520597	0.0048075402444454	0.6242026301198835	0.0013932520666771
5.997800000000005	0.0028099790418658	0.0053457587342705	0.0040858126420403	0.0047963537575453	0.623428838589679	0.0013904559778374
